# xmcd CD database file
#
# Track frame offsets:
#        150
#        20598
#        34477
#        48668
#        61348
#        72675
#        85052
#        99723
#        112492
#        130217
#        143898
#        158620
#        179048
#        191844
#        207777
#        224364
#        243975
#        260702
#        274398
#        291134
#        301856
#
# Disc length: 4295 seconds
#
# Revision: 0
# Processed by: cddbd v1.5.2PL0 Copyright (c) Steve Scherf et al.
# Submitted via: CUERipper 2.1.6
#
DISCID=5810c515
DTITLE=Zayazd - U Mistrza Adama
DYEAR=2002
DGENRE=Country
TTITLE0=Praslowianska noc
TTITLE1=Improwizacje do przyjaciol
TTITLE2=Do H
TTITLE3=Polaly sie lzy me czyste
TTITLE4=Nauka
TTITLE5=Geby za lud krzyczace
TTITLE6=Inwokacja
TTITLE7=Pani Twardowska
TTITLE8=Nad woda wielka i czysta
TTITLE9=Improwizacja
TTITLE10=Kiedy slesz bilet bogatym
TTITLE11=Panicz i dziewczyna
TTITLE12=Zaloty
TTITLE13=Sen
TTITLE14=Piesn Filaretow
TTITLE15=Rozmowa
TTITLE16=Zdrowie Filaretek (Czyn)
TTITLE17=Zyczenie
TTITLE18=Piesn wieczorna
TTITLE19=Przasniczka
TTITLE20=Ostatni Zayazd
EXTD=
EXTT0=
EXTT1=
EXTT2=
EXTT3=
EXTT4=
EXTT5=
EXTT6=
EXTT7=
EXTT8=
EXTT9=
EXTT10=
EXTT11=
EXTT12=
EXTT13=
EXTT14=
EXTT15=
EXTT16=
EXTT17=
EXTT18=
EXTT19=
EXTT20=
PLAYORDER=
